# xmcd CD database file
#
# Track frame offsets:
#	150
#	5532
#	25936
#	38070
#	65255
#	84986
#	92961
#	135425
#	170785
#	185400
#	199749
#	214089
#
# Disc length: 2964 seconds
#
# Revision: 4
# Processed by: cddbd v1.4PL0 Copyright (c) Steve Scherf et al.
# Submitted via: CDex 1.50
#
DISCID=9d0b920c
DTITLE=Northwest Mississippi Community College Jazz Band - Spring 2001 Concert
DYEAR=2001
DGENRE=Jazz
TTITLE0=NWCC Jazz Band Spring 2001- Intro and Welcome
TTITLE1=NWCC Jazz Band Spring 2001- Mercer Ellington- Things Ain't What They Used To Be- Feat. Tom Brown on Piano
TTITLE2=NWCC Jazz Band Spring 2001- Louis Armstrong- I Got the World on a String- Feat. Lori Walker singing
TTITLE3=NWCC Jazz Band Spring 2001- Stanley Turrentine- Sugar- Feat. Alphonso Sanders on lead sax
TTITLE4=NWCC Jazz Band Spring 2001- Brian Kidd- I'm Yours- Feat. Tom Brown on Piano and Brittany Webb on trumpet
TTITLE5=NWCC Jazz Band Spring 2001- Todd Hill and "The Blues"
TTITLE6=NWCC Jazz Band Spring 2001- Lennie Niehaus- Some Like It Blues- Feat. Alphonso Sanders on lead sax
TTITLE7=NWCC Jazz Band Spring 2001- Dizzy Gilespie- Manteca- Feat. Jeremy Freelon on drums
TTITLE8=NWCC Jazz Band Spring 2001- Edward Heyman, Victor Young- When I Fall in Love- Feat. Lori Walker singing
TTITLE9=NWCC Jazz Band Spring 2001- Track 10
TTITLE10=NWCC Jazz Band Spring 2001- Larry Kerchner- Emerald Eyes- Feat. Jeremy Freelon on drums
TTITLE11=NWCC Jazz Band Spring 2001- Outro and Goodbye
EXTD=YEAR: 2001
EXTT0=
EXTT1=
EXTT2=
EXTT3=
EXTT4=
EXTT5=
EXTT6=
EXTT7=
EXTT8=
EXTT9=
EXTT10=
EXTT11=
PLAYORDER=
